<?xml version="1.0" standalone="no"?>
<!DOCTYPE svg PUBLIC "-//W3C//DTD SVG 20010904//EN"
 "http://www.w3.org/TR/2001/REC-SVG-20010904/DTD/svg10.dtd">
<svg version="1.0" xmlns="http://www.w3.org/2000/svg"
 width="204.000000pt" height="192.000000pt" viewBox="0 0 204.000000 192.000000"
 preserveAspectRatio="xMidYMid meet">

<g transform="translate(0.000000,192.000000) scale(0.100000,-0.100000)"
fill="#000000" stroke="none">
<path d="M903 1765 c-76 -21 -123 -47 -187 -105 -100 -92 -158 -252 -137 -380
50 -305 361 -471 636 -340 167 80 273 278 245 460 -21 134 -118 273 -231 331
-94 47 -225 61 -326 34z m242 -134 c60 -26 132 -95 163 -156 22 -42 26 -63 26
-135 0 -105 -21 -158 -91 -228 -155 -155 -425 -105 -516 96 -33 72 -30 199 5
267 28 54 96 123 147 149 76 40 186 42 266 7z"/>
<path d="M878 820 c-149 -18 -297 -94 -395 -205 -119 -133 -203 -405 -143
-465 20 -20 33 -20 680 -20 647 0 660 0 680 20 60 60 -24 332 -143 465 -63 71
-175 146 -260 174 -109 37 -268 48 -419 31z m404 -159 c136 -58 238 -170 288
-317 36 -105 99 -94 -550 -94 -649 0 -586 -11 -550 94 32 94 70 154 139 218
64 60 150 108 229 128 20 5 111 8 202 7 162 -3 167 -3 242 -36z"/>
</g>
</svg>
