<?xml version="1.0" encoding="UTF-8" standalone="no"?>
<!DOCTYPE svg PUBLIC "-//W3C//DTD SVG 1.1//EN" "http://www.w3.org/Graphics/SVG/1.1/DTD/svg11.dtd">
<svg xmlns="http://www.w3.org/2000/svg" version="1.1" viewBox="0.00 0.00 1024.00 1024.00">
<g stroke-width="2.00" fill="none" stroke-linecap="butt">
<path stroke="#858a90" vector-effect="non-scaling-stroke" d="
  M 529.84 408.55
  Q 531.35 409.56 532.58 410.92
  Q 544.71 424.22 557.00 437.34
  C 560.23 440.79 563.41 443.95 568.45 444.40
  Q 577.03 445.16 582.98 439.82
  C 591.28 432.37 588.45 422.66 581.70 415.49
  Q 560.26 392.68 539.24 369.76
  C 534.26 364.33 529.45 358.23 524.08 353.61
  C 517.67 348.10 508.13 349.38 502.38 355.76
  Q 480.55 380.00 450.58 411.23
  C 444.01 418.07 438.45 423.97 441.62 434.20
  Q 443.06 438.86 447.65 441.85
  C 455.20 446.78 463.92 444.98 470.05 438.84
  Q 478.82 430.05 487.86 420.34
  Q 492.87 414.96 498.23 409.57
  Q 498.71 409.08 498.71 409.76
  Q 498.81 502.88 498.69 595.50
  Q 498.68 597.48 498.82 599.79
  C 499.12 604.66 504.87 602.63 507.07 600.55
  Q 515.83 592.30 523.02 582.52
  Q 525.17 579.60 525.12 575.57
  Q 525.05 570.05 525.07 564.08
  Q 525.07 563.46 525.48 563.92
  Q 532.70 571.94 541.33 583.32
  Q 545.77 589.20 553.14 587.14
  C 555.65 586.44 558.25 584.03 559.74 582.06
  Q 568.35 570.70 577.31 560.47
  Q 577.76 559.96 577.76 560.64
  Q 577.69 576.26 578.01 593.42
  C 578.09 597.51 579.81 601.30 584.17 602.06
  Q 588.85 602.88 594.26 602.15
  C 599.97 601.38 601.78 597.94 601.76 592.80
  Q 601.67 557.39 601.76 514.58
  C 601.77 511.09 600.22 508.04 596.70 506.92
  Q 588.61 504.33 583.61 510.79
  Q 567.09 532.16 550.60 553.20
  A 0.36 0.36 0.0 0 1 550.02 553.20
  L 530.38 527.67
  A 4.96 4.93 27.1 0 1 529.35 524.51
  Q 529.70 509.29 529.62 492.37
  Q 529.40 448.61 529.54 412.56
  Q 529.55 410.70 529.39 408.81
  Q 529.35 408.22 529.84 408.55"
/>
<path stroke="#858a90" vector-effect="non-scaling-stroke" d="
  M 231.02 534.67
  C 238.57 527.82 249.54 526.86 257.88 532.99
  C 260.21 534.71 263.39 538.45 266.55 537.39
  Q 273.07 535.21 278.85 529.06
  C 281.44 526.29 281.20 523.30 278.76 520.67
  C 272.42 513.84 263.29 507.83 253.82 506.37
  C 240.29 504.29 226.93 506.91 216.25 515.92
  Q 198.28 531.05 198.18 555.83
  Q 198.14 567.47 204.81 578.87
  C 220.68 606.00 256.62 611.74 278.59 588.27
  Q 282.89 583.68 278.92 579.00
  C 276.85 576.56 266.32 566.69 262.58 570.84
  C 256.44 577.67 247.35 581.22 238.70 577.55
  C 221.28 570.14 217.02 547.38 231.02 534.67"
/>
<path stroke="#858a90" vector-effect="non-scaling-stroke" d="
  M 350.53 582.63
  Q 353.19 588.07 355.76 593.71
  C 357.65 597.88 360.07 602.10 365.09 602.26
  C 370.94 602.44 377.57 603.53 380.97 597.46
  C 382.51 594.72 379.98 589.60 378.57 586.84
  Q 376.86 583.47 375.39 580.21
  Q 361.24 548.63 347.06 516.50
  C 345.70 513.42 344.66 510.49 342.25 508.31
  Q 338.21 504.65 332.49 507.02
  Q 329.60 508.22 328.52 510.71
  Q 322.35 524.99 315.89 539.13
  C 308.66 554.97 301.88 571.32 294.90 586.95
  C 292.82 591.59 290.35 597.35 295.76 600.93
  C 299.06 603.11 305.16 602.62 308.91 602.21
  C 312.78 601.78 314.75 599.09 316.30 595.78
  Q 319.35 589.25 322.51 582.12
  A 0.55 0.54 -76.9 0 1 323.00 581.81
  L 349.29 581.85
  A 1.39 1.37 76.9 0 1 350.53 582.63"
/>
<path stroke="#858a90" vector-effect="non-scaling-stroke" d="
  M 692.33 561.41
  Q 692.29 559.79 693.26 561.10
  Q 707.01 579.72 721.44 598.80
  C 724.34 602.62 727.59 602.41 732.33 602.28
  Q 735.92 602.19 737.79 601.33
  C 743.14 598.88 742.34 594.66 742.35 588.54
  Q 742.43 556.27 742.52 523.99
  C 742.53 520.40 743.15 516.01 742.30 512.79
  Q 740.74 506.92 733.77 506.52
  C 725.70 506.06 718.48 506.67 718.53 516.33
  Q 718.62 534.87 718.46 551.07
  Q 718.44 552.84 717.36 551.44
  Q 702.43 532.08 687.50 511.63
  Q 682.45 504.71 674.31 506.53
  C 670.60 507.36 668.58 510.00 668.58 513.75
  Q 668.58 549.07 668.37 578.00
  Q 668.30 587.11 668.64 594.62
  Q 668.97 601.84 676.57 602.23
  C 682.29 602.52 692.04 603.11 692.27 594.50
  C 692.58 583.40 692.59 572.32 692.33 561.41"
/>
<path stroke="#858a90" vector-effect="non-scaling-stroke" d="
  M 647.18 514.54
  A 7.99 7.99 0.0 0 0 639.19 506.55
  L 631.61 506.55
  A 7.99 7.99 0.0 0 0 623.62 514.54
  L 623.62 594.30
  A 7.99 7.99 0.0 0 0 631.61 602.29
  L 639.19 602.29
  A 7.99 7.99 0.0 0 0 647.18 594.30
  L 647.18 514.54"
/>
<path stroke="#858a90" vector-effect="non-scaling-stroke" d="
  M 458.54 568.37
  C 470.52 562.35 476.77 549.16 474.59 535.90
  Q 471.68 518.28 455.00 509.65
  C 451.13 507.64 446.55 506.99 442.23 507.00
  Q 425.02 507.04 408.78 506.94
  C 404.11 506.91 400.93 509.30 400.94 514.20
  Q 401.04 554.12 400.84 593.56
  Q 400.79 602.01 408.88 602.26
  Q 415.23 602.46 419.12 601.62
  C 424.97 600.35 424.85 594.79 424.79 589.97
  Q 424.69 581.65 424.70 574.07
  Q 424.70 573.46 425.30 573.44
  L 431.84 573.20
  A 1.82 1.81 -17.6 0 1 433.43 574.02
  Q 440.72 584.97 447.78 595.51
  C 450.20 599.13 452.66 602.26 457.14 602.28
  Q 462.17 602.31 466.51 602.15
  Q 471.33 601.96 473.69 597.67
  C 475.37 594.61 472.30 590.33 470.65 587.88
  Q 464.65 578.96 458.35 569.03
  Q 458.08 568.60 458.54 568.37"
/>
<path stroke="#858a90" vector-effect="non-scaling-stroke" d="
  M 787.62 543.28
  L 787.79 529.89
  Q 787.80 529.26 788.42 529.26
  Q 806.36 529.14 823.19 529.30
  C 827.14 529.34 830.20 528.03 831.73 524.08
  C 834.15 517.82 832.03 506.88 823.00 506.93
  Q 797.45 507.08 772.88 506.94
  C 767.03 506.91 763.59 509.54 763.62 515.97
  Q 763.77 549.92 763.66 587.26
  C 763.64 594.28 762.91 602.11 772.69 602.06
  Q 794.19 601.93 823.03 602.00
  C 832.05 602.02 834.76 593.69 832.36 586.31
  C 830.93 581.90 827.38 579.92 822.95 579.94
  Q 806.27 579.99 788.33 580.14
  A 0.66 0.66 0.0 0 1 787.66 579.48
  L 787.66 565.30
  Q 787.66 564.87 788.10 564.87
  Q 802.38 565.07 816.00 564.98
  C 827.98 564.89 827.21 544.12 815.56 544.05
  Q 801.10 543.98 788.49 544.16
  Q 787.60 544.17 787.62 543.28"
/>
<path stroke="#858a90" vector-effect="non-scaling-stroke" d="
  M 514.70 660.27
  Q 539.95 676.36 561.85 692.00
  C 567.36 695.94 572.21 697.39 578.94 694.36
  Q 585.77 691.29 587.51 684.30
  C 589.48 676.35 584.90 669.37 578.22 665.21
  Q 577.05 664.48 575.85 663.69
  Q 552.66 648.39 527.20 630.86
  C 519.76 625.73 513.81 622.80 506.08 627.93
  Q 479.61 645.49 449.25 665.80
  Q 441.01 671.32 441.13 680.35
  C 441.23 688.53 446.15 694.96 454.32 695.79
  C 458.40 696.20 463.09 694.33 466.53 692.06
  Q 490.92 675.91 513.64 660.29
  Q 514.16 659.93 514.70 660.27"
/>
<path stroke="#858a90" vector-effect="non-scaling-stroke" d="
  M 381.7390 658.4814
  A 8.50 8.50 0.0 0 0 373.2241 649.9963
  L 334.5442 650.0638
  A 8.50 8.50 0.0 0 0 326.0590 658.5786
  L 326.0610 659.7186
  A 8.50 8.50 0.0 0 0 334.5759 668.2037
  L 373.2558 668.1362
  A 8.50 8.50 0.0 0 0 381.7410 659.6214
  L 381.7390 658.4814"
/>
<path stroke="#858a90" vector-effect="non-scaling-stroke" d="
  M 705.9406 658.7882
  A 8.73 8.73 0.0 0 0 697.2258 650.0430
  L 659.4059 649.9770
  A 8.73 8.73 0.0 0 0 650.6607 658.6918
  L 650.6594 659.4118
  A 8.73 8.73 0.0 0 0 659.3742 668.1570
  L 697.1941 668.2230
  A 8.73 8.73 0.0 0 0 705.9393 659.5082
  L 705.9406 658.7882"
/>
<path stroke="#858a90" vector-effect="non-scaling-stroke" d="
  M 331.28 562.63
  A 0.35 0.35 0.0 0 0 331.61 563.12
  L 341.72 563.02
  A 0.35 0.35 0.0 0 0 342.03 562.52
  L 336.86 551.30
  A 0.35 0.35 0.0 0 0 336.22 551.31
  L 331.28 562.63"
/>
<path stroke="#858a90" vector-effect="non-scaling-stroke" d="
  M 424.80 530.36
  L 424.94 551.44
  A 0.79 0.79 0.0 0 0 425.74 552.22
  L 438.50 552.13
  A 11.85 11.10 -0.4 0 0 450.27 540.95
  L 450.27 540.49
  A 11.85 11.10 -0.4 0 0 438.34 529.47
  L 425.58 529.56
  A 0.79 0.79 0.0 0 0 424.80 530.36"
/>
</g>
<path fill="#f2f7fc" d="
  M 0.00 0.00
  L 1024.00 0.00
  L 1024.00 1024.00
  L 0.00 1024.00
  L 0.00 0.00
  Z
  M 529.84 408.55
  Q 531.35 409.56 532.58 410.92
  Q 544.71 424.22 557.00 437.34
  C 560.23 440.79 563.41 443.95 568.45 444.40
  Q 577.03 445.16 582.98 439.82
  C 591.28 432.37 588.45 422.66 581.70 415.49
  Q 560.26 392.68 539.24 369.76
  C 534.26 364.33 529.45 358.23 524.08 353.61
  C 517.67 348.10 508.13 349.38 502.38 355.76
  Q 480.55 380.00 450.58 411.23
  C 444.01 418.07 438.45 423.97 441.62 434.20
  Q 443.06 438.86 447.65 441.85
  C 455.20 446.78 463.92 444.98 470.05 438.84
  Q 478.82 430.05 487.86 420.34
  Q 492.87 414.96 498.23 409.57
  Q 498.71 409.08 498.71 409.76
  Q 498.81 502.88 498.69 595.50
  Q 498.68 597.48 498.82 599.79
  C 499.12 604.66 504.87 602.63 507.07 600.55
  Q 515.83 592.30 523.02 582.52
  Q 525.17 579.60 525.12 575.57
  Q 525.05 570.05 525.07 564.08
  Q 525.07 563.46 525.48 563.92
  Q 532.70 571.94 541.33 583.32
  Q 545.77 589.20 553.14 587.14
  C 555.65 586.44 558.25 584.03 559.74 582.06
  Q 568.35 570.70 577.31 560.47
  Q 577.76 559.96 577.76 560.64
  Q 577.69 576.26 578.01 593.42
  C 578.09 597.51 579.81 601.30 584.17 602.06
  Q 588.85 602.88 594.26 602.15
  C 599.97 601.38 601.78 597.94 601.76 592.80
  Q 601.67 557.39 601.76 514.58
  C 601.77 511.09 600.22 508.04 596.70 506.92
  Q 588.61 504.33 583.61 510.79
  Q 567.09 532.16 550.60 553.20
  A 0.36 0.36 0.0 0 1 550.02 553.20
  L 530.38 527.67
  A 4.96 4.93 27.1 0 1 529.35 524.51
  Q 529.70 509.29 529.62 492.37
  Q 529.40 448.61 529.54 412.56
  Q 529.55 410.70 529.39 408.81
  Q 529.35 408.22 529.84 408.55
  Z
  M 231.02 534.67
  C 238.57 527.82 249.54 526.86 257.88 532.99
  C 260.21 534.71 263.39 538.45 266.55 537.39
  Q 273.07 535.21 278.85 529.06
  C 281.44 526.29 281.20 523.30 278.76 520.67
  C 272.42 513.84 263.29 507.83 253.82 506.37
  C 240.29 504.29 226.93 506.91 216.25 515.92
  Q 198.28 531.05 198.18 555.83
  Q 198.14 567.47 204.81 578.87
  C 220.68 606.00 256.62 611.74 278.59 588.27
  Q 282.89 583.68 278.92 579.00
  C 276.85 576.56 266.32 566.69 262.58 570.84
  C 256.44 577.67 247.35 581.22 238.70 577.55
  C 221.28 570.14 217.02 547.38 231.02 534.67
  Z
  M 350.53 582.63
  Q 353.19 588.07 355.76 593.71
  C 357.65 597.88 360.07 602.10 365.09 602.26
  C 370.94 602.44 377.57 603.53 380.97 597.46
  C 382.51 594.72 379.98 589.60 378.57 586.84
  Q 376.86 583.47 375.39 580.21
  Q 361.24 548.63 347.06 516.50
  C 345.70 513.42 344.66 510.49 342.25 508.31
  Q 338.21 504.65 332.49 507.02
  Q 329.60 508.22 328.52 510.71
  Q 322.35 524.99 315.89 539.13
  C 308.66 554.97 301.88 571.32 294.90 586.95
  C 292.82 591.59 290.35 597.35 295.76 600.93
  C 299.06 603.11 305.16 602.62 308.91 602.21
  C 312.78 601.78 314.75 599.09 316.30 595.78
  Q 319.35 589.25 322.51 582.12
  A 0.55 0.54 -76.9 0 1 323.00 581.81
  L 349.29 581.85
  A 1.39 1.37 76.9 0 1 350.53 582.63
  Z
  M 692.33 561.41
  Q 692.29 559.79 693.26 561.10
  Q 707.01 579.72 721.44 598.80
  C 724.34 602.62 727.59 602.41 732.33 602.28
  Q 735.92 602.19 737.79 601.33
  C 743.14 598.88 742.34 594.66 742.35 588.54
  Q 742.43 556.27 742.52 523.99
  C 742.53 520.40 743.15 516.01 742.30 512.79
  Q 740.74 506.92 733.77 506.52
  C 725.70 506.06 718.48 506.67 718.53 516.33
  Q 718.62 534.87 718.46 551.07
  Q 718.44 552.84 717.36 551.44
  Q 702.43 532.08 687.50 511.63
  Q 682.45 504.71 674.31 506.53
  C 670.60 507.36 668.58 510.00 668.58 513.75
  Q 668.58 549.07 668.37 578.00
  Q 668.30 587.11 668.64 594.62
  Q 668.97 601.84 676.57 602.23
  C 682.29 602.52 692.04 603.11 692.27 594.50
  C 692.58 583.40 692.59 572.32 692.33 561.41
  Z
  M 647.18 514.54
  A 7.99 7.99 0.0 0 0 639.19 506.55
  L 631.61 506.55
  A 7.99 7.99 0.0 0 0 623.62 514.54
  L 623.62 594.30
  A 7.99 7.99 0.0 0 0 631.61 602.29
  L 639.19 602.29
  A 7.99 7.99 0.0 0 0 647.18 594.30
  L 647.18 514.54
  Z
  M 458.54 568.37
  C 470.52 562.35 476.77 549.16 474.59 535.90
  Q 471.68 518.28 455.00 509.65
  C 451.13 507.64 446.55 506.99 442.23 507.00
  Q 425.02 507.04 408.78 506.94
  C 404.11 506.91 400.93 509.30 400.94 514.20
  Q 401.04 554.12 400.84 593.56
  Q 400.79 602.01 408.88 602.26
  Q 415.23 602.46 419.12 601.62
  C 424.97 600.35 424.85 594.79 424.79 589.97
  Q 424.69 581.65 424.70 574.07
  Q 424.70 573.46 425.30 573.44
  L 431.84 573.20
  A 1.82 1.81 -17.6 0 1 433.43 574.02
  Q 440.72 584.97 447.78 595.51
  C 450.20 599.13 452.66 602.26 457.14 602.28
  Q 462.17 602.31 466.51 602.15
  Q 471.33 601.96 473.69 597.67
  C 475.37 594.61 472.30 590.33 470.65 587.88
  Q 464.65 578.96 458.35 569.03
  Q 458.08 568.60 458.54 568.37
  Z
  M 787.62 543.28
  L 787.79 529.89
  Q 787.80 529.26 788.42 529.26
  Q 806.36 529.14 823.19 529.30
  C 827.14 529.34 830.20 528.03 831.73 524.08
  C 834.15 517.82 832.03 506.88 823.00 506.93
  Q 797.45 507.08 772.88 506.94
  C 767.03 506.91 763.59 509.54 763.62 515.97
  Q 763.77 549.92 763.66 587.26
  C 763.64 594.28 762.91 602.11 772.69 602.06
  Q 794.19 601.93 823.03 602.00
  C 832.05 602.02 834.76 593.69 832.36 586.31
  C 830.93 581.90 827.38 579.92 822.95 579.94
  Q 806.27 579.99 788.33 580.14
  A 0.66 0.66 0.0 0 1 787.66 579.48
  L 787.66 565.30
  Q 787.66 564.87 788.10 564.87
  Q 802.38 565.07 816.00 564.98
  C 827.98 564.89 827.21 544.12 815.56 544.05
  Q 801.10 543.98 788.49 544.16
  Q 787.60 544.17 787.62 543.28
  Z
  M 514.70 660.27
  Q 539.95 676.36 561.85 692.00
  C 567.36 695.94 572.21 697.39 578.94 694.36
  Q 585.77 691.29 587.51 684.30
  C 589.48 676.35 584.90 669.37 578.22 665.21
  Q 577.05 664.48 575.85 663.69
  Q 552.66 648.39 527.20 630.86
  C 519.76 625.73 513.81 622.80 506.08 627.93
  Q 479.61 645.49 449.25 665.80
  Q 441.01 671.32 441.13 680.35
  C 441.23 688.53 446.15 694.96 454.32 695.79
  C 458.40 696.20 463.09 694.33 466.53 692.06
  Q 490.92 675.91 513.64 660.29
  Q 514.16 659.93 514.70 660.27
  Z
  M 381.7390 658.4814
  A 8.50 8.50 0.0 0 0 373.2241 649.9963
  L 334.5442 650.0638
  A 8.50 8.50 0.0 0 0 326.0590 658.5786
  L 326.0610 659.7186
  A 8.50 8.50 0.0 0 0 334.5759 668.2037
  L 373.2558 668.1362
  A 8.50 8.50 0.0 0 0 381.7410 659.6214
  L 381.7390 658.4814
  Z
  M 705.9406 658.7882
  A 8.73 8.73 0.0 0 0 697.2258 650.0430
  L 659.4059 649.9770
  A 8.73 8.73 0.0 0 0 650.6607 658.6918
  L 650.6594 659.4118
  A 8.73 8.73 0.0 0 0 659.3742 668.1570
  L 697.1941 668.2230
  A 8.73 8.73 0.0 0 0 705.9393 659.5082
  L 705.9406 658.7882
  Z"
/>
<path fill="#181d24" d="
  M 529.39 408.81
  Q 529.55 410.70 529.54 412.56
  Q 529.40 448.61 529.62 492.37
  Q 529.70 509.29 529.35 524.51
  A 4.96 4.93 27.1 0 0 530.38 527.67
  L 550.02 553.20
  A 0.36 0.36 0.0 0 0 550.60 553.20
  Q 567.09 532.16 583.61 510.79
  Q 588.61 504.33 596.70 506.92
  C 600.22 508.04 601.77 511.09 601.76 514.58
  Q 601.67 557.39 601.76 592.80
  C 601.78 597.94 599.97 601.38 594.26 602.15
  Q 588.85 602.88 584.17 602.06
  C 579.81 601.30 578.09 597.51 578.01 593.42
  Q 577.69 576.26 577.76 560.64
  Q 577.76 559.96 577.31 560.47
  Q 568.35 570.70 559.74 582.06
  C 558.25 584.03 555.65 586.44 553.14 587.14
  Q 545.77 589.20 541.33 583.32
  Q 532.70 571.94 525.48 563.92
  Q 525.07 563.46 525.07 564.08
  Q 525.05 570.05 525.12 575.57
  Q 525.17 579.60 523.02 582.52
  Q 515.83 592.30 507.07 600.55
  C 504.87 602.63 499.12 604.66 498.82 599.79
  Q 498.68 597.48 498.69 595.50
  Q 498.81 502.88 498.71 409.76
  Q 498.71 409.08 498.23 409.57
  Q 492.87 414.96 487.86 420.34
  Q 478.82 430.05 470.05 438.84
  C 463.92 444.98 455.20 446.78 447.65 441.85
  Q 443.06 438.86 441.62 434.20
  C 438.45 423.97 444.01 418.07 450.58 411.23
  Q 480.55 380.00 502.38 355.76
  C 508.13 349.38 517.67 348.10 524.08 353.61
  C 529.45 358.23 534.26 364.33 539.24 369.76
  Q 560.26 392.68 581.70 415.49
  C 588.45 422.66 591.28 432.37 582.98 439.82
  Q 577.03 445.16 568.45 444.40
  C 563.41 443.95 560.23 440.79 557.00 437.34
  Q 544.71 424.22 532.58 410.92
  Q 531.35 409.56 529.84 408.55
  Q 529.35 408.22 529.39 408.81
  Z"
/>
<path fill="#181d24" d="
  M 231.02 534.67
  C 217.02 547.38 221.28 570.14 238.70 577.55
  C 247.35 581.22 256.44 577.67 262.58 570.84
  C 266.32 566.69 276.85 576.56 278.92 579.00
  Q 282.89 583.68 278.59 588.27
  C 256.62 611.74 220.68 606.00 204.81 578.87
  Q 198.14 567.47 198.18 555.83
  Q 198.28 531.05 216.25 515.92
  C 226.93 506.91 240.29 504.29 253.82 506.37
  C 263.29 507.83 272.42 513.84 278.76 520.67
  C 281.20 523.30 281.44 526.29 278.85 529.06
  Q 273.07 535.21 266.55 537.39
  C 263.39 538.45 260.21 534.71 257.88 532.99
  C 249.54 526.86 238.57 527.82 231.02 534.67
  Z"
/>
<path fill="#181d24" d="
  M 350.53 582.63
  A 1.39 1.37 76.9 0 0 349.29 581.85
  L 323.00 581.81
  A 0.55 0.54 -76.9 0 0 322.51 582.12
  Q 319.35 589.25 316.30 595.78
  C 314.75 599.09 312.78 601.78 308.91 602.21
  C 305.16 602.62 299.06 603.11 295.76 600.93
  C 290.35 597.35 292.82 591.59 294.90 586.95
  C 301.88 571.32 308.66 554.97 315.89 539.13
  Q 322.35 524.99 328.52 510.71
  Q 329.60 508.22 332.49 507.02
  Q 338.21 504.65 342.25 508.31
  C 344.66 510.49 345.70 513.42 347.06 516.50
  Q 361.24 548.63 375.39 580.21
  Q 376.86 583.47 378.57 586.84
  C 379.98 589.60 382.51 594.72 380.97 597.46
  C 377.57 603.53 370.94 602.44 365.09 602.26
  C 360.07 602.10 357.65 597.88 355.76 593.71
  Q 353.19 588.07 350.53 582.63
  Z
  M 331.28 562.63
  A 0.35 0.35 0.0 0 0 331.61 563.12
  L 341.72 563.02
  A 0.35 0.35 0.0 0 0 342.03 562.52
  L 336.86 551.30
  A 0.35 0.35 0.0 0 0 336.22 551.31
  L 331.28 562.63
  Z"
/>
<path fill="#181d24" d="
  M 692.33 561.41
  C 692.59 572.32 692.58 583.40 692.27 594.50
  C 692.04 603.11 682.29 602.52 676.57 602.23
  Q 668.97 601.84 668.64 594.62
  Q 668.30 587.11 668.37 578.00
  Q 668.58 549.07 668.58 513.75
  C 668.58 510.00 670.60 507.36 674.31 506.53
  Q 682.45 504.71 687.50 511.63
  Q 702.43 532.08 717.36 551.44
  Q 718.44 552.84 718.46 551.07
  Q 718.62 534.87 718.53 516.33
  C 718.48 506.67 725.70 506.06 733.77 506.52
  Q 740.74 506.92 742.30 512.79
  C 743.15 516.01 742.53 520.40 742.52 523.99
  Q 742.43 556.27 742.35 588.54
  C 742.34 594.66 743.14 598.88 737.79 601.33
  Q 735.92 602.19 732.33 602.28
  C 727.59 602.41 724.34 602.62 721.44 598.80
  Q 707.01 579.72 693.26 561.10
  Q 692.29 559.79 692.33 561.41
  Z"
/>
<rect fill="#181d24" x="623.62" y="506.55" width="23.56" height="95.74" rx="7.99"/>
<path fill="#181d24" d="
  M 458.35 569.03
  Q 464.65 578.96 470.65 587.88
  C 472.30 590.33 475.37 594.61 473.69 597.67
  Q 471.33 601.96 466.51 602.15
  Q 462.17 602.31 457.14 602.28
  C 452.66 602.26 450.20 599.13 447.78 595.51
  Q 440.72 584.97 433.43 574.02
  A 1.82 1.81 -17.6 0 0 431.84 573.20
  L 425.30 573.44
  Q 424.70 573.46 424.70 574.07
  Q 424.69 581.65 424.79 589.97
  C 424.85 594.79 424.97 600.35 419.12 601.62
  Q 415.23 602.46 408.88 602.26
  Q 400.79 602.01 400.84 593.56
  Q 401.04 554.12 400.94 514.20
  C 400.93 509.30 404.11 506.91 408.78 506.94
  Q 425.02 507.04 442.23 507.00
  C 446.55 506.99 451.13 507.64 455.00 509.65
  Q 471.68 518.28 474.59 535.90
  C 476.77 549.16 470.52 562.35 458.54 568.37
  Q 458.08 568.60 458.35 569.03
  Z
  M 424.80 530.36
  L 424.94 551.44
  A 0.79 0.79 0.0 0 0 425.74 552.22
  L 438.50 552.13
  A 11.85 11.10 -0.4 0 0 450.27 540.95
  L 450.27 540.49
  A 11.85 11.10 -0.4 0 0 438.34 529.47
  L 425.58 529.56
  A 0.79 0.79 0.0 0 0 424.80 530.36
  Z"
/>
<path fill="#181d24" d="
  M 787.62 543.28
  Q 787.60 544.17 788.49 544.16
  Q 801.10 543.98 815.56 544.05
  C 827.21 544.12 827.98 564.89 816.00 564.98
  Q 802.38 565.07 788.10 564.87
  Q 787.66 564.87 787.66 565.30
  L 787.66 579.48
  A 0.66 0.66 0.0 0 0 788.33 580.14
  Q 806.27 579.99 822.95 579.94
  C 827.38 579.92 830.93 581.90 832.36 586.31
  C 834.76 593.69 832.05 602.02 823.03 602.00
  Q 794.19 601.93 772.69 602.06
  C 762.91 602.11 763.64 594.28 763.66 587.26
  Q 763.77 549.92 763.62 515.97
  C 763.59 509.54 767.03 506.91 772.88 506.94
  Q 797.45 507.08 823.00 506.93
  C 832.03 506.88 834.15 517.82 831.73 524.08
  C 830.20 528.03 827.14 529.34 823.19 529.30
  Q 806.36 529.14 788.42 529.26
  Q 787.80 529.26 787.79 529.89
  L 787.62 543.28
  Z"
/>
<path fill="#f2f7fc" d="
  M 424.80 530.36
  A 0.79 0.79 0.0 0 1 425.58 529.56
  L 438.34 529.47
  A 11.85 11.10 -0.4 0 1 450.27 540.49
  L 450.27 540.95
  A 11.85 11.10 -0.4 0 1 438.50 552.13
  L 425.74 552.22
  A 0.79 0.79 0.0 0 1 424.94 551.44
  L 424.80 530.36
  Z"
/>
<path fill="#f2f7fc" d="
  M 331.28 562.63
  L 336.22 551.31
  A 0.35 0.35 0.0 0 1 336.86 551.30
  L 342.03 562.52
  A 0.35 0.35 0.0 0 1 341.72 563.02
  L 331.61 563.12
  A 0.35 0.35 0.0 0 1 331.28 562.63
  Z"
/>
<path fill="#181d24" d="
  M 513.64 660.29
  Q 490.92 675.91 466.53 692.06
  C 463.09 694.33 458.40 696.20 454.32 695.79
  C 446.15 694.96 441.23 688.53 441.13 680.35
  Q 441.01 671.32 449.25 665.80
  Q 479.61 645.49 506.08 627.93
  C 513.81 622.80 519.76 625.73 527.20 630.86
  Q 552.66 648.39 575.85 663.69
  Q 577.05 664.48 578.22 665.21
  C 584.90 669.37 589.48 676.35 587.51 684.30
  Q 585.77 691.29 578.94 694.36
  C 572.21 697.39 567.36 695.94 561.85 692.00
  Q 539.95 676.36 514.70 660.27
  Q 514.16 659.93 513.64 660.29
  Z"
/>
<rect fill="#181d24" x="-27.84" y="-9.07" transform="translate(353.90,659.10) rotate(-0.1)" width="55.68" height="18.14" rx="8.50"/>
<rect fill="#181d24" x="-27.64" y="-9.09" transform="translate(678.30,659.10) rotate(0.1)" width="55.28" height="18.18" rx="8.73"/>
</svg>
